<svg xmlns="http://www.w3.org/2000/svg" width="259.518" height="153.599" viewBox="0 0 259.518 153.599">
  <g id="icon" transform="translate(-362.755 -372.908)">
    <path id="Path_48" data-name="Path 48" d="M438.2,381.155c11.822,10.938,19.858,38.063,19.766,67.549a144.291,144.291,0,0,1-6.112,42.165,90.815,90.815,0,0,0-7.02,8.708c.187,2.473.251,4.858.2,7.132l0,.1a39.355,39.355,0,0,1-7.227,9.322,39.59,39.59,0,0,1-7.175-9.365v-.108a69.392,69.392,0,0,1,.239-7.127,90.977,90.977,0,0,0-6.968-8.748,144.295,144.295,0,0,1-5.865-42.2c.088-29.49,8.286-56.563,20.172-67.43Zm19.384,113.051a141.927,141.927,0,0,1,31.381-24.6c.462-.764.928-1.525,1.378-2.294q2.431-4.127,4.559-8.334c-2.055,1.043-4.109,2.134-6.148,3.277a157.537,157.537,0,0,0-27.814,19.639,158.959,158.959,0,0,0,3.508-33.174c.1-33.5-9.664-63.388-24.294-74.362l-1.927-1.449-1.943,1.438c-14.693,10.886-24.636,40.715-24.732,74.215a158.026,158.026,0,0,0,3.309,33.2,158.293,158.293,0,0,0-27.7-19.81q-3.052-1.726-6.128-3.313c1.406,2.807,2.907,5.6,4.511,8.362.442.772.9,1.541,1.362,2.306a141.646,141.646,0,0,1,31.23,24.787c4.261,13.081,10.369,23.338,17.7,28.837l.956.717.036.032,0,0,.94.709.94-.7h0l.04-.036.956-.7c7.363-5.459,13.534-15.677,17.871-28.738Z" transform="translate(54.513 0)" fill="#305f63"/>
    <path id="Path_49" data-name="Path 49" d="M451.316,456.709c16.991-28.873,23.641-59.6,16.545-76.457l-.936-2.23-2.4.263c-13.945,1.525-31.1,14.1-46,32.9.41,3.094.741,6.252.971,9.465,13.762-19.046,30.215-32.716,43.251-35.523,4.687,15.41-2.055,42.881-17.011,68.3-11.739,19.953-27.045,36.1-40.7,43.753a47.04,47.04,0,0,1-8.255,10.337c17.5-4.424,38.848-24.138,54.54-50.809Z" transform="translate(101.448 15.25)" fill="#305f63"/>
    <path id="Path_50" data-name="Path 50" d="M405.06,441.162a77.569,77.569,0,0,0-1.262,14.745c.749,1.238,1.533,2.389,2.334,3.464h0c.084.115.171.215.259.33.259.346.53.693.8,1.019.362.442.729.868,1.1,1.274.374-.4.745-.828,1.111-1.27.271-.322.537-.669.8-1.011.088-.112.175-.215.263-.327v0c.808-1.067,1.6-2.214,2.353-3.448a77.867,77.867,0,0,0-1.175-14.753c2.246-11.866,7.156-25.345,14.3-38.525.048-1.545.08-3.1.084-4.667q.006-4.026-.175-7.98c-.92,1.453-1.824,2.923-2.7,4.428a156.654,156.654,0,0,0-14.753,33.026,156.591,156.591,0,0,0-14.554-33.118q-1.308-2.251-2.672-4.436-.215,3.948-.227,7.98c0,1.561.016,3.118.056,4.663,7.064,13.224,11.89,26.731,14.068,38.609Z" transform="translate(84.033 50.702)" fill="#305f63"/>
    <path id="Path_51" data-name="Path 51" d="M440.443,497.434c-13.61-7.741-28.821-23.975-40.44-44-14.8-25.5-21.387-53.015-16.6-68.4,13.021,2.879,29.391,16.656,43.041,35.778q.376-4.814,1.031-9.457c-14.793-18.894-31.875-31.569-45.808-33.173l-2.405-.279-.948,2.222c-7.191,16.812-.729,47.58,16.091,76.556,15.534,26.763,36.769,46.6,54.234,51.132a47.268,47.268,0,0,1-8.191-10.385Z" transform="translate(37.721 14.913)" fill="#305f63"/>
    <path id="Path_52" data-name="Path 52" d="M518.157,394.008c-4.759-2.126-10.68-3.205-17.58-3.205-10.89,0-23.6,2.68-36.713,7.593q-1.708,4.217-3.731,8.47c14.478-6.176,28.658-9.585,40.444-9.585a40.546,40.546,0,0,1,12.591,1.736C509.44,414.691,489.754,435,464.018,449.4c-18.906,10.58-38.577,16.8-54.313,17.238a50.622,50.622,0,0,1-12.726,5.387l-.048.008a51.327,51.327,0,0,0,11.038,1.111c17.086,0,38.668-6.594,59.215-18.094,29.239-16.362,50.483-39.533,52.868-57.662l.31-2.4-2.206-.98Z" transform="translate(101.91 53.362)" fill="#305f63"/>
    <path id="Path_53" data-name="Path 53" d="M472.979,467.018c-15.737-.526-35.34-6.857-54.206-17.56-25.651-14.55-45.215-34.985-48.846-50.678a40.37,40.37,0,0,1,12.252-1.66c11.854,0,26.137,3.492,40.731,9.819q-1.989-4.253-3.679-8.485c-13.232-5.057-26.074-7.817-37.052-7.817-6.737,0-12.531,1.047-17.214,3.1l-2.21.972.3,2.4c2.27,18.142,23.378,41.444,52.518,57.981,20.658,11.719,42.34,18.44,59.5,18.44h0a51.516,51.516,0,0,0,10.652-1.039l-.048-.016a50.706,50.706,0,0,1-12.7-5.459Z" transform="translate(0 52.867)" fill="#305f63"/>
  </g>
</svg>
