<svg xmlns="http://www.w3.org/2000/svg" width="40.263" height="45.688" viewBox="0 0 40.263 45.688">
  <g id="Group_46" data-name="Group 46" transform="translate(-488.12 -342.949)">
    <g id="Group_45" data-name="Group 45" transform="translate(488.12 342.949)">
      <path id="Path_54" data-name="Path 54" d="M451.3,449.513a1.9,1.9,0,0,1-.81-.551,10.569,10.569,0,0,1-.833,1.223,11.379,11.379,0,0,1-.916,1.028,10.679,10.679,0,0,1-3.828,2.424,13.468,13.468,0,0,1-4.541.793,10.11,10.11,0,0,1-3.6-.58c-.27-.1-.534-.2-.8-.322-.209-.095-.422-.2-.635-.31a20.152,20.152,0,0,0,2.128-3.13,31.725,31.725,0,0,0,2.1-4.616c.284-.773.551-1.576.8-2.392q.181-.6.345-1.218l.155-.615.123-.531.055-.239-.152-.233a.966.966,0,0,0-.448-.342l-.058-.026-.488-.1h-.066a.97.97,0,0,0-.494.1.635.635,0,0,0-.235.221.623.623,0,0,0-.1.238l-.1.431-.146.583c-.1.385-.207.77-.322,1.152-.227.773-.479,1.537-.753,2.274a29.792,29.792,0,0,1-1.953,4.334,18.055,18.055,0,0,1-2.083,3.03,17.315,17.315,0,0,1-1.456-1.224A33.486,33.486,0,0,1,429,447.356l-.514-.643c-.339-.428-.681-.859-1.031-1.287a16.159,16.159,0,0,0-1.786-1.91,5.131,5.131,0,0,0-1.244-.822c-.078-.034-.158-.069-.241-.1a3.089,3.089,0,0,0-1.5-.138,5.089,5.089,0,0,0-2.645,1.381,7.611,7.611,0,0,0-2.4,4.969,6.253,6.253,0,0,0,.488,2.844,7.028,7.028,0,0,0,1.634,2.314,12.189,12.189,0,0,0,4.526,2.608l.141.051a9.32,9.32,0,0,0,5.316.356,9.838,9.838,0,0,0,4.32-2.418,12.939,12.939,0,0,0,1.186.594c.267.118.537.224.81.322a11.989,11.989,0,0,0,4.354.678,15.11,15.11,0,0,0,5.089-.951,12.325,12.325,0,0,0,5.58-4.248,11.165,11.165,0,0,0,.853-1.336A2.015,2.015,0,0,1,451.3,449.513Zm-22.032,5.552a7.42,7.42,0,0,1-4.277-.319l-.112-.04a10.388,10.388,0,0,1-3.774-2.151,5.105,5.105,0,0,1-1.192-1.672,4.363,4.363,0,0,1-.342-1.959,5.673,5.673,0,0,1,1.766-3.685,3.337,3.337,0,0,1,1.629-.9,1.158,1.158,0,0,1,.589.049c.032.011.06.023.095.037a3.27,3.27,0,0,1,.787.523,14.519,14.519,0,0,1,1.574,1.674c.336.4.669.816,1,1.229l.54.672a35.191,35.191,0,0,0,3.395,3.731c.462.428.93.824,1.4,1.18A7.6,7.6,0,0,1,429.272,455.065Z" transform="translate(-417.625 -411.535)" fill="#305f63"/>
      <path id="Path_55" data-name="Path 55" d="M481.125,367.843a6.269,6.269,0,0,1-2.551-1.818,8.4,8.4,0,0,1-1.736-3.4,16.95,16.95,0,0,1-.035-7.168,30.575,30.575,0,0,1,.829-3.421c.169-.56.355-1.12.55-1.663a14.654,14.654,0,0,1,.69-1.666,7.5,7.5,0,0,1,2.37-2.932,4.605,4.605,0,0,1,3.937-.688l.607.186-.552,1.482-.547-.181a2.723,2.723,0,0,0-1.3-.067,3.149,3.149,0,0,0-1.259.538,6.066,6.066,0,0,0-1.855,2.354,18.635,18.635,0,0,0-1.1,3.092,28.79,28.79,0,0,0-.712,3.241,15.373,15.373,0,0,0,.141,6.419,6.609,6.609,0,0,0,1.366,2.643,8.234,8.234,0,0,0,2.176,1.611l.738.437-.454,1.28-.49-.075A4.494,4.494,0,0,1,481.125,367.843Z" transform="translate(-459.286 -344.338)" fill="#305f63"/>
      <path id="Path_56" data-name="Path 56" d="M504.524,379.114a4.914,4.914,0,0,1-.658-.288l-.458-.242.469-1.322.506.1a8.377,8.377,0,0,0,3.037.2,6.63,6.63,0,0,0,2.744-1.2,15.421,15.421,0,0,0,4.148-4.913,29.01,29.01,0,0,0,1.483-2.974,18.941,18.941,0,0,0,1.089-3.089,6.069,6.069,0,0,0,.039-3,3.189,3.189,0,0,0-.636-1.206,2.749,2.749,0,0,0-1.054-.77l-.538-.2.5-1.5.588.236a4.592,4.592,0,0,1,2.626,3.014,7.5,7.5,0,0,1-.006,3.772,14.381,14.381,0,0,1-.516,1.73c-.19.542-.4,1.093-.622,1.635a30.6,30.6,0,0,1-1.516,3.171,16.95,16.95,0,0,1-4.546,5.531,8.4,8.4,0,0,1-3.478,1.539A6.362,6.362,0,0,1,504.524,379.114Z" transform="translate(-478.387 -354.109)" fill="#305f63"/>
      <path id="Path_57" data-name="Path 57" d="M501.723,343.832c.2-.578.6-.965.874-.867l1.614,1.091c.174.062.208.416.076.788l-.12.339c-.133.374-.381.626-.555.564l-1.942-.168c-.278-.1-.338-.648-.133-1.224Z" transform="translate(-476.977 -342.949)" fill="#305f63"/>
      <path id="Path_58" data-name="Path 58" d="M541.631,358.894c.205-.578.136-1.128-.152-1.231l-2-.192c-.181-.064-.434.188-.566.561l-.12.339c-.132.373-.094.728.087.792l1.678,1.115c.289.1.689-.284.893-.86Z" transform="translate(-503.392 -353.229)" fill="#305f63"/>
      <path id="Path_59" data-name="Path 59" d="M491.967,424.882a2.846,2.846,0,0,1-1.536-.544c-.352-.125-.572-5.022-.435-6.083a1.388,1.388,0,0,1,1.888-.9l3.351,1.188a1.389,1.389,0,0,1,.9,1.888C495.573,421.342,492.32,425.007,491.967,424.882Z" transform="translate(-468.858 -395.589)" fill="#305f63"/>
      <path id="Path_60" data-name="Path 60" d="M528.214,455.46a3.39,3.39,0,1,0-2.266,6.39c.089.032.175.057.264.081a3.389,3.389,0,0,0,2-6.471Zm.7,3.843a1.946,1.946,0,0,1-1.844,1.292,2.015,2.015,0,0,1-.632-.112,1.9,1.9,0,0,1-.81-.551,1.939,1.939,0,1,1,3.286-.629Z" transform="translate(-492.754 -422.505)" fill="#305f63"/>
    </g>
  </g>
</svg>
