<svg xmlns="http://www.w3.org/2000/svg" width="40.946" height="43.329" viewBox="0 0 40.946 43.329">
  <g id="Group_50" data-name="Group 50" transform="translate(-41.533 -140.802)">
    <path id="Path_61" data-name="Path 61" d="M75.893,150.358a8.606,8.606,0,0,0-5.236-.174c.1-.108.213-.2.308-.315a9.242,9.242,0,0,0,1.582-8.471.544.544,0,0,0-.073-.127.476.476,0,0,0-.536-.468,11.029,11.029,0,0,0-9.485,7.6,16.174,16.174,0,0,0-5.517-7.435.444.444,0,0,0-.478-.059.477.477,0,0,0-.048.027.486.486,0,0,0-.094.07.5.5,0,0,0-.069.051,9.326,9.326,0,0,0-1.686,3.737.511.511,0,0,0,.118.5.54.54,0,0,0,.279.2,9.51,9.51,0,0,1,6.4,6.592c-3.512-.585-6.5-2.8-10.3-2.331a10.426,10.426,0,0,0-8.041,6.276c-3.926,8.486.6,18.669,6.14,25.35,2.9,3.5,5.6,3.118,9.569,1.8,2.879-.956,4.833-.4,7.634.3a12.675,12.675,0,0,0,4.907.542c3.858-.608,6.347-5.3,7.735-8.5,2.044-4.718,3.623-9.563,3.472-14.763C82.345,156.45,80.126,151.966,75.893,150.358ZM71.526,142a8.011,8.011,0,0,1-1.733,7.485c-1.692,1.728-4.3,2.311-6.647,2.65a.538.538,0,0,0,.02-.149A9.67,9.67,0,0,1,71.526,142ZM55.8,144.6a8.223,8.223,0,0,1,.971-2.329,14.583,14.583,0,0,1,4.819,7.3A10.686,10.686,0,0,0,55.8,144.6Zm18.016,36.789c-3.783,3.534-7.995-.224-12.228-.048-2.025.084-3.809,1.144-5.739,1.625-3.453.86-5.488-1.635-7.206-4.239-2.9-4.4-5.586-9.165-5.929-14.534s2-12.124,7.961-13.227c4.272-.79,7.541,2.063,11.6,2.37a.521.521,0,0,0,.244.022,12.423,12.423,0,0,0,3.437-.624,14.24,14.24,0,0,0,1.586-.521c2.406-.829,4.792-1.694,7.294-1.011,6.8,1.856,7.2,10.311,5.913,15.957C79.643,172,77.515,177.934,73.813,181.391Z" fill="#305f63"/>
    <path id="Path_62" data-name="Path 62" d="M53.1,157.331c-3.841,1.582-5.781,6.422-5.134,10.325.12.721,1.216.415,1.1-.3-.533-3.219,1.122-7.6,4.34-8.926C54.072,158.154,53.779,157.053,53.1,157.331Z" transform="translate(-1.159 -3.028)" fill="#305f63"/>
    <path id="Path_63" data-name="Path 63" d="M48.8,172.871a.569.569,0,0,0,0,1.137A.569.569,0,0,0,48.8,172.871Z" transform="translate(-1.234 -5.891)" fill="#305f63"/>
  </g>
</svg>
