<svg xmlns="http://www.w3.org/2000/svg" width="40.78" height="42.237" viewBox="0 0 40.78 42.237">
  <path id="Path_64" data-name="Path 64" d="M373.7,253.981c0-.051.011-.1.016-.151.171-.251,1.281-2.027,1.273-5.871.006-.028.014-.056.02-.084.182.728,1.093,1.092,1.275,2,.182,3.643,1.092,8.014-1.458,10.929-.309.31-.749.224-1.237-.032a11.877,11.877,0,0,0-1.7-1.035,23.755,23.755,0,0,0-2.736-1.083,6.161,6.161,0,0,0-1.455-.375c.387-.129.664-.225.943-.311.811-.247,1.647-.429,2.43-.747a3.663,3.663,0,0,0,2.634-3.242Zm13.257-4.1c.176-.884,1.039-1.255,1.255-1.942-.014,4.182,1.3,5.926,1.3,5.926l.019-.009c0,.043.01.086.014.128a3.663,3.663,0,0,0,2.634,3.242c.783.318,1.62.5,2.43.747.277.085.551.181.934.308a6.05,6.05,0,0,0-1.486.378,23.66,23.66,0,0,0-2.736,1.083,11.809,11.809,0,0,0-1.787,1.1c-.439.206-.833.255-1.116-.029-2.55-2.914-1.639-7.286-1.457-10.929ZM370.29,253.5c-1.081.925-2.2,1.8-3.343,2.66a1.938,1.938,0,0,1-.737.354.521.521,0,0,1-.14-.109,2.139,2.139,0,0,1-.276-.521,1.89,1.89,0,0,0-.326-.473.309.309,0,0,0-.132-.1.385.385,0,0,0-.242.044,1.537,1.537,0,0,1-1.293-.088.3.3,0,0,0-.137-.053.184.184,0,0,0-.166.181c-.237-.125-.47-.254-.7-.392-.43-.257-.665-.329-1,.013a2.414,2.414,0,0,0,.346,3.443,18.373,18.373,0,0,0,1.7.887l.055,0c-.412,3.159,1.558,4.972,3.723,6.765a11.329,11.329,0,0,1,2.3,1.136.891.891,0,0,1,.111.074c.019.014.039.026.059.04l-.005.006c.169.167.215.413.035.854-.329.808.591,1.858,1.29,1.677,1.284-.33,2.57-.66,3.87-.923a13.74,13.74,0,0,1,4.757-.226l.01.023a4.619,4.619,0,0,0,3.108,0c.025-.007.049-.017.074-.026a13.751,13.751,0,0,1,4.733.229c1.3.263,2.585.593,3.868.923.7.181,1.62-.869,1.291-1.677-.176-.433-.135-.677.027-.844.013-.013.027-.025.041-.036l-.035.024,0,0,.059-.04a.944.944,0,0,1,.111-.074,11.282,11.282,0,0,1,2.3-1.136c2.165-1.793,4.135-3.606,3.723-6.765l.055,0a18.615,18.615,0,0,0,1.7-.887,2.414,2.414,0,0,0,.345-3.443c-.332-.342-.568-.27-1-.013-.241.143-.487.281-.737.411a.189.189,0,0,0-.168-.2.3.3,0,0,0-.138.053,1.533,1.533,0,0,1-1.292.088.387.387,0,0,0-.242-.044.313.313,0,0,0-.133.1,1.889,1.889,0,0,0-.326.473,2.159,2.159,0,0,1-.276.521.538.538,0,0,1-.128.1,1.981,1.981,0,0,1-.71-.348c-1.138-.856-2.262-1.735-3.342-2.66a2.09,2.09,0,0,1-.526-1.013,25.593,25.593,0,0,1-.716-6.583c1.257-6.141-3.081-6.488-3.735-6.5-.452-.148-.916-.265-1.363-.427-.591-.215-1.167-.473-1.743-.711h0c-.238-.053-.48-.1-.726-.133-.007-.867.011-2.866.011-2.866a1.79,1.79,0,0,0,1.1-1.183c.3-.9-.191-1.2-.26-1.233,0-.04,0-.143,0-.38a4.143,4.143,0,0,0,.1-.911,3.609,3.609,0,1,0-7.2,0,4.274,4.274,0,0,0,.051.647c-.005.429,0,.591,0,.644-.069.036-.561.332-.26,1.233a1.79,1.79,0,0,0,1.1,1.183s.018,2.107.01,2.933c-.277.038-.437.066-.437.066h0c-.577.237-1.153.5-1.744.711-.445.162-.909.279-1.36.426-.474,0-5.118.207-3.757,6.606l.018.085a25.106,25.106,0,0,1-.713,6.4,2.1,2.1,0,0,1-.527,1.013Z" transform="translate(-361.235 -227.686)" fill="#305f63"/>
</svg>
