<svg xmlns="http://www.w3.org/2000/svg" width="15.81" height="10.92" viewBox="0 0 15.81 10.92">
  <path id="email" d="M20.475,19H5.352A.353.353,0,0,0,5,19.352V29.639c0,.018,0,.018.018.035,0,.018,0,.018.018.035,0,.018.018.018.018.035s.018.018.018.035V29.8l.018.018.018.018.018.018a.061.061,0,0,0,.035.018c.018,0,.018.018.035.018s.018.018.035.018.018,0,.035.018h15.3c.018,0,.035-.018.053-.018l.018-.018a.038.038,0,0,0,.035-.035l.018-.018.035-.035.018-.018v-.018c0-.018.018-.018.018-.035a.061.061,0,0,0,.018-.035c0-.018,0-.018.018-.035s0-.018.018-.035V19.352A.328.328,0,0,0,20.475,19ZM5.7,21.3l4.748,3.763L5.7,28.83Zm.668,7.9,4.66-3.693L12.7,26.825a.338.338,0,0,0,.211.07.307.307,0,0,0,.211-.07l1.671-1.319,4.66,3.693Zm13.752-.369-4.748-3.763L20.123,21.3Zm0-8.423-.211.176-7,5.539-7-5.539L5.7,20.407v-.7h14.42Z" transform="translate(-5 -19)" fill="#fff"/>
</svg>
