<svg xmlns="http://www.w3.org/2000/svg" width="50.186" height="51.979" viewBox="0 0 50.186 51.979">
  <path id="Path_11" data-name="Path 11" d="M376.581,260.047c.005-.063.014-.124.02-.186.21-.309,1.577-2.494,1.567-7.226.007-.035.017-.069.024-.1.224.9,1.345,1.344,1.569,2.465.224,4.483,1.344,9.863-1.794,13.45-.38.381-.922.275-1.522-.039a14.621,14.621,0,0,0-2.1-1.274,29.227,29.227,0,0,0-3.367-1.333,7.582,7.582,0,0,0-1.791-.462c.477-.159.817-.277,1.16-.383,1-.3,2.027-.528,2.99-.92a4.508,4.508,0,0,0,3.242-3.99ZM392.9,255c.217-1.088,1.279-1.544,1.545-2.39-.018,5.146,1.594,7.293,1.594,7.293l.024-.011c.005.053.012.106.017.157a4.508,4.508,0,0,0,3.242,3.99c.963.391,1.993.616,2.99.92.341.1.678.223,1.149.379a7.446,7.446,0,0,0-1.828.466,29.116,29.116,0,0,0-3.367,1.333,14.537,14.537,0,0,0-2.2,1.349c-.541.254-1.026.313-1.374-.035-3.139-3.587-2.017-8.966-1.793-13.45Zm-20.517,4.457c-1.331,1.139-2.713,2.22-4.114,3.274a2.385,2.385,0,0,1-.906.436.641.641,0,0,1-.172-.134,2.631,2.631,0,0,1-.34-.641,2.329,2.329,0,0,0-.4-.582.381.381,0,0,0-.163-.117.474.474,0,0,0-.3.054,1.891,1.891,0,0,1-1.591-.109.367.367,0,0,0-.168-.065.226.226,0,0,0-.2.223c-.291-.154-.579-.313-.862-.482-.529-.316-.819-.4-1.229.016a2.971,2.971,0,0,0,.426,4.237,22.608,22.608,0,0,0,2.093,1.091l.068,0c-.507,3.888,1.917,6.119,4.582,8.325a13.941,13.941,0,0,1,2.831,1.4,1.094,1.094,0,0,1,.136.091c.024.018.049.032.072.049l-.007.007c.207.205.264.508.043,1.051-.405.995.727,2.287,1.588,2.064,1.58-.406,3.163-.812,4.762-1.136a16.91,16.91,0,0,1,5.854-.278l.012.028a5.684,5.684,0,0,0,3.825,0c.031-.009.06-.021.091-.032a16.924,16.924,0,0,1,5.825.282c1.6.324,3.181.73,4.761,1.136.862.222,1.993-1.07,1.588-2.064-.217-.533-.166-.834.033-1.039.015-.015.033-.03.051-.045l-.043.029-.005,0c.024-.017.049-.032.073-.049a1.155,1.155,0,0,1,.137-.091,13.885,13.885,0,0,1,2.831-1.4c2.664-2.206,5.088-4.438,4.581-8.325l.068,0a22.891,22.891,0,0,0,2.094-1.091,2.97,2.97,0,0,0,.425-4.237c-.409-.421-.7-.333-1.228-.016-.3.177-.6.346-.906.506a.233.233,0,0,0-.207-.247.369.369,0,0,0-.17.065,1.887,1.887,0,0,1-1.59.109.476.476,0,0,0-.3-.054.385.385,0,0,0-.164.117,2.325,2.325,0,0,0-.4.582,2.657,2.657,0,0,1-.34.641.661.661,0,0,1-.157.127,2.439,2.439,0,0,1-.873-.428c-1.4-1.054-2.783-2.135-4.113-3.274a2.572,2.572,0,0,1-.647-1.247,31.5,31.5,0,0,1-.881-8.1c1.547-7.557-3.791-7.984-4.6-8.005-.556-.182-1.127-.326-1.677-.525-.728-.265-1.436-.583-2.145-.875h0c-.293-.066-.591-.118-.894-.163-.009-1.068.013-3.527.013-3.527a2.2,2.2,0,0,0,1.357-1.456c.37-1.109-.235-1.473-.32-1.518,0-.049.005-.177,0-.468a5.1,5.1,0,0,0,.125-1.121,4.442,4.442,0,1,0-8.86,0,5.26,5.26,0,0,0,.063.8c-.007.528,0,.728,0,.792-.085.045-.691.408-.32,1.518a2.2,2.2,0,0,0,1.357,1.456s.022,2.593.012,3.609c-.341.046-.538.081-.538.081h0c-.71.292-1.418.61-2.147.875-.548.2-1.118.343-1.674.525-.583.005-6.3.255-4.624,8.13.007.036.015.069.022.1a30.9,30.9,0,0,1-.878,7.873,2.578,2.578,0,0,1-.648,1.247Z" transform="translate(-361.235 -227.686)" fill="#e29506"/>
</svg>
