<svg xmlns="http://www.w3.org/2000/svg" width="40.378" height="57.385" viewBox="0 0 40.378 57.385">
  <path id="Path_10" data-name="Path 10" d="M504.629,255.626a4.463,4.463,0,0,0,2.144-3.447,14.688,14.688,0,0,0,1.266,4.36c1.126,2.426,1.3,3.2,1.372,4.4s.176,2.461.176,2.461a33.486,33.486,0,0,1-4.149-3.9c-1.125-1.477-1.687-2.181-1.687-2.181a2.231,2.231,0,0,1,.879-1.687Zm20.994,1.933a48.881,48.881,0,0,0,1.758-4.958,13.01,13.01,0,0,0,2.5,4.009c1.336,1.443,1.266,1.793,1.2,2.206a14.093,14.093,0,0,1-1.9,3.28c-.668.774-2.11,2.427-2.918,2.5s-1.2.527-1.478.423-.562-.562-.667-1.443a18.842,18.842,0,0,1,1.512-6.013Zm-29.152,6.928a18.918,18.918,0,0,0,5.591,7.947,41.932,41.932,0,0,0,6.373,3.355,2.356,2.356,0,0,1-1.133.233,19.281,19.281,0,0,0-2.716-.158,4.162,4.162,0,0,0-2.953,1.371c-.581.87-.449.423-.845,1.213s-.527.792-.158,1.5.238.844,1.161,1.029,1.16-.132,2.848-.316a20.544,20.544,0,0,1,4.4.053c1.741.131,4.511-.185,5.169-.713.373-.3.982-.681,1.49-1.052,1.084.659,1.565,1.327,2.361,1.712a9.949,9.949,0,0,0,2.637.809c.808.176,1.09.6,2.285.562a7.017,7.017,0,0,1,3.482.246c2.6.6,2.918.774,3.164.281s.247-.316.493-.844.14-.423.387-.915.387-.352.246-.844-.176-.281-.316-.739-.281-1.2-.422-1.547-.036-.456-.809-.773,2.5-2.111,2.5-2.111,5.028-3.306,5.028-6.118-2.215-4.431-3.762-4.15l-1.547.281s4.219-3.691,4.43-3.833a.941.941,0,0,0,.387-1.02c-.07-.633-.809-3.3-1.055-4.359a22.384,22.384,0,0,0-2.742-5.415c-.985-1.3-.7-4.045-3.06-5.522s-5.2-1.547-6.786-2.742c-1.193-.9-1.346-1.5-1.4-2.181h.023c-.012-.045-.019-.083-.023-.105-.035-.211,0-4.255,0-4.255a2.339,2.339,0,0,0,1.442-1.547c.392-1.179-.25-1.564-.341-1.612,0-.053.006-.188,0-.5a5.449,5.449,0,0,0,.133-1.191,4.72,4.72,0,1,0-9.416,0,5.505,5.505,0,0,0,.067.847c-.006.561,0,.773,0,.842-.091.048-.734.433-.341,1.612a2.341,2.341,0,0,0,1.442,1.547s.035,4.044,0,4.255a3.006,3.006,0,0,1-2.181,2.18,12.822,12.822,0,0,1-3.376.88,5.5,5.5,0,0,0-5.661,5.2,27.28,27.28,0,0,0-2.778,5.767c-.492,2.11-1.371,2.849-1.512,3.692s-.808,2.216,0,2.5l.106.492s-3.06,1.476-2.321,4.149Z" transform="translate(-496.356 -225.462)" fill="#e29506"/>
</svg>
