<svg xmlns="http://www.w3.org/2000/svg" width="47.877" height="52.265" viewBox="0 0 47.877 52.265">
  <path id="Path_44" data-name="Path 44" d="M634.343,660.649c1.9-.7,3.013-7.42,3.388-10.3a1.784,1.784,0,0,1,.638.425c.584.663,4.52,3.818,5.573,4.754a10.406,10.406,0,0,0,2.611,1.793c.7.312.935.858,1.909,1.286s2.4,1.52,3.325,1.871a27.466,27.466,0,0,1,3.3,1.987,2.9,2.9,0,0,1,1.715,2.651,9.392,9.392,0,0,1-1.833,4.832,6.164,6.164,0,0,1-2.533,1.909c-.9.194-1.286-.429-2.065-1.092-.117-.1-.251-.212-.4-.333-2.093-3.359-7.416-2.823-8.091-3.031s-6.234-4.78-6.962-5.247a1.626,1.626,0,0,1-.571-1.507Zm-10.6,2.857s-1.558,2.183,0,3.845,5.248,5.508,5.819,6.183a66.739,66.739,0,0,0,7.587,6.183c1.455.779,1.974,1.766,3.793,2.13s16.366.259,16.366.259,6.183-.779,7.846-4.781,3.221-5.663,2.494-9.249-.208-4.883-.208-4.883a5.639,5.639,0,0,1,.571-1.922,8.382,8.382,0,0,0,.831-2.52c.078-.676-.181-1.04.494-1.715a8.2,8.2,0,0,0,1.481-1.767c.181-.416.156-1.014-.207-1.117a.976.976,0,0,1-.65-.623c-.129-.286.1-.26-.233-.546s-.488-.441-.543-.623-.236-.233-.263-.39a5.036,5.036,0,0,1,.131-.805c.052-.363,0-.649-.519-.7a3.66,3.66,0,0,1-1.585-.183,9.138,9.138,0,0,1-1.3-1.065,4.6,4.6,0,0,0-6.859,1.533s-1.922,2.824-.52,4.984c.046.07.089.138.131.2a12.881,12.881,0,0,1-1.6-.536,14.232,14.232,0,0,0-3.339-1.35c-1.455-.313-1.611.311-2.65-.624a33.921,33.921,0,0,0-3.533-3.345c-1.247-.812-5.715-3.722-6.651-4.6-.663-.627-1.176-1.2-1.42-1.479a1.588,1.588,0,0,1,.692-.444,2.3,2.3,0,0,0,1.741-2.285c.078-1.377-1.2-1.612-1.481-2.6s-.322-3.143-1.109-4.079-1.333-1.9-1.671-2a5.139,5.139,0,0,0-1.227-.442,8.934,8.934,0,0,0-.461-.857c-.234-.338-.728.027-.805,0s.077-.649-.183-.571-.233-.441-.857-.494-.728-.493-1.4-.338-1.585-.363-1.013,1.04a8.236,8.236,0,0,1,.986,4.234c-.1,1.923.365,5.508-.025,6.495a6.705,6.705,0,0,0-.415,1.221.652.652,0,0,0-.572.623c0,.546-.7.676-.649,1.455s-.546.052-.468,1.273-.779.754-.311,1.532.031,1.221-.14,1.663-6.1,14.081-6.1,14.081Z" transform="translate(-623.05 -629.856)" fill="#e29506"/>
</svg>
