<svg xmlns="http://www.w3.org/2000/svg" width="16.671" height="77.184" viewBox="0 0 16.671 77.184">
  <path id="Path_9" data-name="Path 9" d="M269.456,232.669a3.574,3.574,0,0,1-.347.635c-.16.287-.247.613-.432.885a.79.79,0,0,1-.835.382c-.149-.048-.5-.54-.614-.706-.046-.872-.1-2.13-.1-2.13a1.616,1.616,0,0,0,.94-1.12c.229-.828-.229-1.072-.293-1.1,0-.036,0-.13-.014-.344a3.8,3.8,0,0,0,.048-.827,3.265,3.265,0,1,0-6.5.338,3.808,3.808,0,0,0,.078.582c.015.389.025.534.031.583-.061.036-.491.324-.178,1.125a1.62,1.62,0,0,0,1.052,1.017s.092,1.516.134,2.373c-.022.026-.3.213-.327.234a.63.63,0,0,1-.692-.008,1.841,1.841,0,0,1-.5-.531,2.893,2.893,0,0,1-.624-1.256,4.271,4.271,0,0,1,.025-.837c.04-.636-.062-1.274-.05-1.911a10.68,10.68,0,0,1,.693-3.107q1.07-3.242,2.141-6.483a3.067,3.067,0,0,1,.869-1.536c.182-.143.394-.242.567-.394a.654.654,0,0,0,.253-.607l.087.4c.1.121.211.233.317.347,1.575,1.7,2.021,4.135,3.176,6.141a5.259,5.259,0,0,1,.514,1.015,4.054,4.054,0,0,1,.141.868q.237,2.633.475,5.267a1.855,1.855,0,0,1-.029.711Zm1,14.59c0-.048,0-.1,0-.146l.063-.253c.712-2.861,1.176-4.538,1.326-5.612s.4-1.536.457-2.469.422-1.158.647-2.135a20.613,20.613,0,0,0,.1-6.029c-.342-1.945-1.529-4.88-1.664-5.527s-.337-1.842-2.5-4.449a15.04,15.04,0,0,1-3.074-4.8c-.437-1.149-.583-4.428-1.262-3.076,0,0-.54.053-.678,1.352a12.846,12.846,0,0,1-1.542,3.617s-3.62,5.87-3.833,7.223a21.451,21.451,0,0,1-.812,2.779c-.123.6-1.249,3.783-1.112,5.92s.224,3.785.59,4.385.187,1.592.981,3.461a15.612,15.612,0,0,1,.859,3.105,6.51,6.51,0,0,1,.172,1.229q-.28,1.9-.562,3.8a23.473,23.473,0,0,0-.051,8.257c-.149,2.125-.289,4.355-.252,5.125.068,1.433.766,9.144,1.166,12.1s1.491,4.361,1.626,5.878a26.341,26.341,0,0,1,.336,5.1c-.208,1.381-1.592,1.48-2.321,2.175s-.521.664.736,1.115a3.335,3.335,0,0,0,2.1.119,1.048,1.048,0,0,0,.685-.133,1.166,1.166,0,0,0,.424-.637c.109-.345.142-.712.263-1.051.135-.374.374-.7.537-1.064a1.336,1.336,0,0,0,.064-1.149l0,0c-.153-.331-.511-.659-.6-1.062a16.184,16.184,0,0,1,.35-4.248,6.662,6.662,0,0,0-.249-3.846,6.578,6.578,0,0,1,.014-3.923c.408-.924-.14-2.844.064-3.061a25.631,25.631,0,0,1-.05-9.043c-.011-.044-.021-.085-.034-.127a.567.567,0,0,1,.055-.018c.137-.873.3-1.745.485-2.618a1.038,1.038,0,0,1,.7,0c.184.872.349,1.745.485,2.618a.462.462,0,0,1,.055.018c-.012.042-.023.084-.033.127a25.63,25.63,0,0,1-.051,9.043c.2.217-.343,2.137.065,3.061a6.579,6.579,0,0,1,.014,3.923,6.668,6.668,0,0,0-.249,3.846,16.279,16.279,0,0,1,.351,4.248c-.089.4-.446.73-.6,1.062l0,0a1.339,1.339,0,0,0,.064,1.149c.165.362.4.69.537,1.064.123.339.154.706.264,1.051a1.163,1.163,0,0,0,.425.637,1.042,1.042,0,0,0,.683.133,3.338,3.338,0,0,0,2.1-.119c1.256-.451,1.464-.42.735-1.115s-2.113-.794-2.32-2.175a26.34,26.34,0,0,1,.336-5.1c.135-1.516,1.225-2.918,1.625-5.878s1.1-10.671,1.167-12.1c.037-.759-.1-2.931-.246-5.027.189-1.742.23-3.51.269-5.261q.06-2.736.119-5.471Z" transform="translate(-256.558 -212.444)" fill="#e29506"/>
</svg>
