<svg xmlns="http://www.w3.org/2000/svg" width="55.461" height="46.563" viewBox="0 0 55.461 46.563">
  <path id="Path_45" data-name="Path 45" d="M656.132,521.527a1.993,1.993,0,0,0-.532-.9c-.055-.059-.115-.115-.176-.17a2.027,2.027,0,0,0-1.814-.658,16.713,16.713,0,0,0-4.681,1.114c-.164.028-.327.055-.49.088a14.089,14.089,0,0,0-3.584,1.2A1.8,1.8,0,0,1,644,521.9a1.558,1.558,0,0,1-.371-.384c0-.024,0-.048-.006-.073a23.255,23.255,0,0,0-.467-3.317,11.954,11.954,0,0,0-1.965-4.209l-.33-.5q-.585-.882-1.172-1.762a6.827,6.827,0,0,0-3.355-3.088,12.025,12.025,0,0,0-1.957-.855c-.208-.063-.418-.113-.631-.157a18.329,18.329,0,0,1-4.261-2.375c-.374-.294-.733-.609-1.126-.879a4.934,4.934,0,0,0-.844-.818l-2.1-1.73a7.24,7.24,0,0,0-2.986-1.692l-3.048-1.052c-.863-.3-1.727-.6-2.609-.835a11.335,11.335,0,0,1-2.834-.967,9.357,9.357,0,0,0-1.191-.7,4.5,4.5,0,0,0-.939-.228l-3.426-.58c-.008.093-.017.185-.025.278a.671.671,0,0,0-1,.233c-.141.324,0,.7-.038,1.052a.5.5,0,0,0,0,.226.4.4,0,0,0,.175.179,15.825,15.825,0,0,0,2.75,1.417.714.714,0,0,1,.328.206.958.958,0,0,1,.116.321,1.426,1.426,0,0,0,1.457,1.015,6.691,6.691,0,0,0,1.136-.341,3.9,3.9,0,0,1,1.9.065,11.14,11.14,0,0,1,4.187,1.957,7.82,7.82,0,0,0,1.948,1.284,9.853,9.853,0,0,1,1.813.567,3.62,3.62,0,0,1,.682.585l.781.791a2.158,2.158,0,0,1-.76.238c-.036,0-.072,0-.109,0a11.767,11.767,0,0,0-1.479,1.353,6.665,6.665,0,0,0-.711,1.159,3.863,3.863,0,0,0,.228,2.749,5.019,5.019,0,0,0,.96,1.7,3.372,3.372,0,0,0,4.517.118,6.705,6.705,0,0,0,.719-.78c.2.057.4.1.589.16a6.459,6.459,0,0,0,.552,1.043,13.1,13.1,0,0,0,3.928,3.967c.431.469.923.885,1.379,1.331a12.8,12.8,0,0,1,1.155,1.294,3.969,3.969,0,0,1,.841,1.6,10.747,10.747,0,0,1,.091,1.258c.009.1.022.2.037.3a6.481,6.481,0,0,0-.763.718,11.933,11.933,0,0,0-2.233,3.521,9.189,9.189,0,0,1-.906,1.943,6.636,6.636,0,0,1-2.02,1.643,13.391,13.391,0,0,1-5.687,2.369c-1.229.1-2.479-.139-3.692.079a14.841,14.841,0,0,0-3.246,1.272,29.957,29.957,0,0,1-7.116,1.808,3.45,3.45,0,0,1-2.773-.323c-.3-.246-.54-.609-.921-.686-.443-.091-.848.246-1.175.558l-4.485,4.288a2.586,2.586,0,0,0-.718.946.4.4,0,0,0-.069.394.663.663,0,0,0,.155.2c.3.306.726.637,1.109.445.2-.1.314-.323.49-.465a1.538,1.538,0,0,1,.375-.2c.366-.155.726-.323,1.085-.5a15.076,15.076,0,0,0,2.416-.6,25.8,25.8,0,0,1,2.469-.836,14.038,14.038,0,0,1,2.65-.273c2.253-.089,4.508-.178,6.763-.114,2.808.078,5.648.389,8.4-.156,3.3-.653,6.229-2.483,9.074-4.279l6.193-3.909a2.931,2.931,0,0,0,1.37.238,6.292,6.292,0,0,0,2.891-1.062,13.3,13.3,0,0,0,1.965-1.494,9,9,0,0,0,.893-.94c-.06.221-.115.443-.158.67-.138.713-.2,1.443-.341,2.155a17.441,17.441,0,0,1-.964,2.908c-.162.4-.326.814-.523,1.2a4.932,4.932,0,0,1-.547,1.133c-.468.7-1.194,1.291-1.284,2.125a1.58,1.58,0,0,0,1.055,1.621,3.036,3.036,0,0,0,.982.093l8.044-.1a.585.585,0,0,0,.435-.125.4.4,0,0,0-.062-.536,1.14,1.14,0,0,0-.54-.24,16.817,16.817,0,0,1-3.548-1.111,2.387,2.387,0,0,1-1.429-1.547,1.737,1.737,0,0,1-.007-.507c.034-.088.07-.176.106-.263a80.317,80.317,0,0,1,4.936-10.394,5.7,5.7,0,0,0,.957-2.233,2.208,2.208,0,0,0,0-.387,1.455,1.455,0,0,0-.015-.547Z" transform="translate(-600.705 -495.696)" fill="#e29506"/>
</svg>
