<svg xmlns="http://www.w3.org/2000/svg" width="15.29" height="22.935" viewBox="0 0 15.29 22.935">
  <g id="location" transform="translate(-99.213 -123.305)">
    <g id="Group_64" data-name="Group 64" transform="translate(99.213 123.305)">
      <g id="Group_63" data-name="Group 63" transform="translate(0 0)">
        <path id="Path_71" data-name="Path 71" d="M106.858,123.3a7.646,7.646,0,0,0-6.727,11.278l6.309,11.41a.478.478,0,0,0,.836,0l6.311-11.414a7.646,7.646,0,0,0-6.729-11.274Zm5.891,10.815-5.891,10.654-5.889-10.65a6.689,6.689,0,1,1,11.779,0Z" transform="translate(-99.213 -123.305)" fill="#fff"/>
        <path id="Path_72" data-name="Path 72" d="M202.249,222.518a3.822,3.822,0,1,0,3.822,3.822A3.827,3.827,0,0,0,202.249,222.518Zm0,6.689a2.867,2.867,0,1,1,2.867-2.867A2.87,2.87,0,0,1,202.249,229.207Z" transform="translate(-194.605 -218.696)" fill="#fff"/>
      </g>
    </g>
  </g>
</svg>
