<svg xmlns="http://www.w3.org/2000/svg" width="50.292" height="37.984" viewBox="0 0 50.292 37.984">
  <g id="quote-left" transform="translate(0.003)">
    <path id="Path_107" data-name="Path 107" d="M43.778,37.984H34.741a6.34,6.34,0,0,1-6.323-6.323c0-13.011-3.323-27.3,12.622-31.383,7.224-1.846,9.106,6.11,1.424,6.659-4.686.336-5.6,3.364-5.746,7.94h7.248A6.34,6.34,0,0,1,50.29,21.2V31.469a6.532,6.532,0,0,1-6.511,6.516Zm-28.133,0H6.608A6.34,6.34,0,0,1,.285,31.661C.285,18.65-3.038,4.359,12.907.278c7.228-1.85,9.11,6.106,1.424,6.659-4.686.336-5.6,3.364-5.746,7.94h7.252A6.34,6.34,0,0,1,22.16,21.2V31.469a6.538,6.538,0,0,1-6.516,6.516Z" fill="#e29506" fill-rule="evenodd"/>
  </g>
</svg>
