<svg xmlns="http://www.w3.org/2000/svg" width="18" height="20" viewBox="0 0 18 20">
  <g id="user" transform="translate(-3.063 -1030.4)" opacity="0.8">
    <path id="Path_66" data-name="Path 66" d="M8.443,1041.1a9.094,9.094,0,0,0-5.381,7.3,1.957,1.957,0,0,0,1.951,2h14.1a1.957,1.957,0,0,0,1.951-2,9.1,9.1,0,0,0-5.381-7.3,4.126,4.126,0,0,1-3.619,2.3A4.125,4.125,0,0,1,8.443,1041.1Z" transform="translate(0)" fill="#e29506"/>
    <path id="Path_67" data-name="Path 67" d="M17.07,4a5.035,5.035,0,1,1-5.035-5A5.018,5.018,0,0,1,17.07,4Z" transform="translate(0.027 1031.4)" fill="#e29506"/>
    <path id="Path_68" data-name="Path 68" d="M12.062,11a9.049,9.049,0,0,0-9,8,1.954,1.954,0,0,0,1.951,2h14.1a1.954,1.954,0,0,0,1.951-2,9.049,9.049,0,0,0-9-8Z" transform="translate(0 1028.4)" fill="#e29506"/>
  </g>
</svg>
